<svg xmlns="http://www.w3.org/2000/svg" version="1.1" xmlns:xlink="http://www.w3.org/1999/xlink" viewBox="0 0 40 40" width="35" height="35">
	<path d="M34.9,30.5V15.6c-0.4,0.4-0.8,0.9-1.4,1.2c-3.4,2.7-6.2,4.8-8.2,6.6c-0.6,0.5-1.1,0.9-1.6,1.2c-0.4,0.3-0.9,0.6-1.7,0.9 c-0.7,0.3-1.4,0.5-2,0.5l0,0c-0.6,0-1.2-0.2-2-0.5c-0.7-0.3-1.2-0.6-1.7-0.9c-0.4-0.3-0.9-0.7-1.6-1.2c-2.1-1.7-4.8-3.8-8.2-6.6 c-0.5-0.4-0.9-0.8-1.4-1.2v14.9c0,0.2,0.1,0.3,0.2,0.4C5.7,31,5.9,31.1,6,31.1h28.4c0.2,0,0.3-0.1,0.4-0.2 C34.8,30.8,34.9,30.7,34.9,30.5L34.9,30.5z M34.9,10.2V9.7c0,0,0-0.1,0-0.2c0-0.1,0-0.2-0.1-0.2c-0.1,0-0.1,0-0.1-0.2 c0-0.1-0.1-0.2-0.2-0.1c-0.1,0-0.2,0-0.3,0H5.8C5.6,8.9,5.4,9,5.3,9.1C5.2,9.2,5.1,9.3,5.1,9.5c0,2.2,0.9,4,2.8,5.5 c2.5,2,5.1,4,7.7,6.1c0.1,0.1,0.3,0.2,0.7,0.5c0.4,0.3,0.6,0.5,0.9,0.7c0.2,0.2,0.5,0.4,0.8,0.6c0.3,0.2,0.7,0.4,0.9,0.5 c0.3,0.1,0.6,0.2,0.8,0.2l0,0c0.2,0,0.5-0.1,0.8-0.2c0.3-0.1,0.6-0.3,0.9-0.5c0.3-0.2,0.6-0.4,0.8-0.6c0.2-0.2,0.5-0.4,0.9-0.7 c0.4-0.3,0.6-0.5,0.6-0.5c2.7-2.1,5.3-4.2,7.7-6.1c0.7-0.5,1.4-1.2,2-2.2C34.6,11.8,34.9,11,34.9,10.2L34.9,10.2z M37.3,9.5v21 c0,0.8-0.3,1.6-0.9,2.2s-1.4,0.9-2.2,0.9H5.8c-0.8,0-1.6-0.3-2.2-0.9c-0.6-0.6-0.9-1.4-0.9-2.2v-21c0-0.8,0.3-1.6,0.9-2.2 s1.4-0.9,2.2-0.9h28.4c0.8,0,1.6,0.3,2.2,0.9S37.3,8.7,37.3,9.5z" fill="white"/>
</svg>