<svg xmlns="http://www.w3.org/2000/svg" version="1.1" xmlns:xlink="http://www.w3.org/1999/xlink" viewBox="0 0 40 40" width="30" height="30">
	<path d="M20.9,37L33,25.3c3-3,4.5-5.9,4.5-8.8c0-2.9-0.8-5.1-2.5-6.7c-1.6-1.6-3.9-2.4-6.8-2.4c-0.8,0-1.6,0.1-2.5,0.4 S24.1,8.5,23.3,9c-0.7,0.5-1.3,0.9-1.9,1.3c-0.5,0.4-1,0.9-1.5,1.3c-0.5-0.5-1-0.9-1.5-1.3C18,9.9,17.4,9.5,16.7,9 c-0.7-0.5-1.5-0.9-2.3-1.1s-1.7-0.4-2.5-0.4C9,7.5,6.7,8.3,5,9.9s-2.5,3.8-2.5,6.7c0,0.9,0.2,1.8,0.5,2.7c0.3,0.9,0.7,1.7,1,2.4 c0.4,0.6,0.8,1.3,1.3,1.9c0.5,0.6,0.9,1,1.1,1.3C6.7,25,6.9,25.2,7,25.3L19.1,37c0.2,0.2,0.5,0.4,0.9,0.4S20.6,37.3,20.9,37z" fill="black"/>
</svg>