<svg xmlns="http://www.w3.org/2000/svg" version="1.1" xmlns:xlink="http://www.w3.org/1999/xlink" viewBox="0 0 40 40" width="30" height="30">
	<path d="M28,31.4c-0.3-0.3-0.7-0.5-1.2-0.5h-1.6V16.1c0-0.4-0.2-0.8-0.5-1.2c-0.3-0.3-0.7-0.5-1.2-0.5h-9.8c-0.4,0-0.8,0.2-1.2,0.5 s-0.5,0.7-0.5,1.2v3.3c0,0.4,0.2,0.8,0.5,1.2c0.3,0.3,0.7,0.5,1.2,0.5h1.6v9.8h-1.6c-0.4,0-0.8,0.2-1.2,0.5s-0.5,0.7-0.5,1.2v3.3 c0,0.4,0.2,0.8,0.5,1.2s0.7,0.5,1.2,0.5h13.1c0.4,0,0.8-0.2,1.2-0.5s0.5-0.7,0.5-1.2v-3.3C28.5,32.1,28.3,31.7,28,31.4z M24.7,1.9 c-0.3-0.3-0.7-0.5-1.2-0.5H17c-0.4,0-0.8,0.2-1.2,0.5c-0.3,0.3-0.5,0.7-0.5,1.2V8c0,0.4,0.2,0.8,0.5,1.2c0.3,0.3,0.7,0.5,1.2,0.5 h6.5c0.4,0,0.8-0.2,1.2-0.5c0.3-0.3,0.5-0.7,0.5-1.2V3.1C25.2,2.6,25.1,2.2,24.7,1.9z" fill="white"/>
</svg>