<svg xmlns="http://www.w3.org/2000/svg" version="1.1" xmlns:xlink="http://www.w3.org/1999/xlink" viewBox="0 0 40 40" width="30" height="30">
	<path d="M23.7,29.2c-0.2-0.2-0.5-0.3-0.8-0.3h-6.5c-0.3,0-0.5,0.1-0.8,0.3c-0.2,0.2-0.3,0.5-0.3,0.8v6.5c0,0.3,0.1,0.5,0.3,0.8 c0.2,0.2,0.5,0.3,0.8,0.3H23c0.3,0,0.5-0.1,0.8-0.3c0.2-0.2,0.3-0.5,0.3-0.8v-6.5C24.1,29.6,24,29.4,23.7,29.2z M31.6,9.3 c-0.7-1.4-1.7-2.5-2.9-3.5c-1.2-0.9-2.5-1.7-4-2.3s-2.9-0.8-4.4-0.8c-5.5,0-9.7,2.4-12.6,7.2c-0.1,0.2-0.2,0.5-0.1,0.8 c0,0.3,0.2,0.5,0.4,0.7l4.5,3.4c0.2,0.1,0.5,0.2,0.7,0.2c0.3,0,0.6-0.1,0.8-0.4c1.3-1.6,2.3-2.7,2.9-3.1c0.8-0.5,1.8-0.8,2.9-0.8 c1.1,0,2.1,0.3,2.9,0.9c0.8,0.6,1.3,1.3,1.3,2c0,0.9-0.2,1.5-0.7,2.1s-1.2,1-2.3,1.5c-1.4,0.6-2.7,1.6-3.9,3s-1.8,2.8-1.8,4.3v1.2 c0,0.3,0.1,0.7,0.3,1c0.2,0.3,0.4,0.5,0.7,0.5h6.5c0.3,0,0.5-0.1,0.8-0.4c0.2-0.3,0.3-0.6,0.3-0.9c0-0.5,0.2-1.1,0.7-1.8 c0.5-0.8,1.1-1.4,1.9-1.8c0.7-0.4,1.3-0.7,1.7-1c0.4-0.2,0.9-0.6,1.6-1.2c0.6-0.5,1.1-1.1,1.5-1.6c0.4-0.5,0.7-1.2,1-2.1 c0.3-0.9,0.4-1.8,0.4-2.8C32.7,12.1,32.3,10.6,31.6,9.3z" fill="red"/>
</svg>